<svg width="178" height="25" viewBox="0 0 178 25" fill="none" xmlns="http://www.w3.org/2000/svg">
<g clip-path="url(#clip0_590:75)">
<mask id="path-1-inside-1_590:75" fill="white">
<path d="M36.2471 8.25256C36.0635 8.29553 36.1807 8.28772 36.0283 8.30725C35.376 8.44788 35.8604 8.57288 36.2471 8.25256ZM47.7197 8.51428C47.7666 8.48303 47.9307 8.32288 47.4189 8.16663C47.4502 8.32678 47.3135 8.31116 47.3135 8.401C47.6924 8.74475 47.8486 9.34241 48.333 9.46741C48.4268 9.03772 47.9033 8.82678 47.7197 8.51428V8.51428ZM35.8994 8.12756C35.958 8.47522 36.2197 7.76038 36.2236 7.50647C36.1221 7.56506 36.0205 7.62366 35.915 7.67053C36.1611 7.79553 35.9463 7.92834 35.6807 8.12756C35.1416 8.79944 36.1846 7.60413 35.8994 8.12756V8.12756ZM42.583 3.776C37.0596 3.776 32.583 8.25256 32.583 13.776C32.583 19.2955 37.0596 23.776 42.583 23.776C48.1064 23.776 52.583 19.2955 52.583 13.776C52.583 8.25256 48.1064 3.776 42.583 3.776ZM42.8486 7.12756L42.8955 7.14319C42.708 7.38538 43.8721 8.09241 43.0361 8.151C42.2549 8.37366 43.3643 7.94788 42.7588 8.02209C43.0791 7.57678 42.5049 7.56897 42.8486 7.12756V7.12756ZM38.1064 7.76819C37.8252 7.53381 36.9424 8.0885 37.251 7.95569C38.0166 7.65491 37.3018 7.98694 37.4814 8.34631C37.3174 8.68616 37.4268 8.01038 37.0205 8.41272C36.7275 8.47913 36.0088 9.14319 36.0986 8.94006C36.0752 9.25647 35.2432 9.63147 35.1299 10.1588C34.8564 10.8893 35.0635 10.1315 35.0127 9.84631C34.6221 9.35022 33.9111 10.6862 34.1221 11.2135C34.4775 10.5885 34.4502 11.1471 34.1924 11.4244C34.4541 11.9049 33.9541 12.5299 34.4502 12.8854C34.6689 12.9362 35.1064 12.151 34.915 12.9674C35.0479 12.2604 35.2822 13.1354 35.6611 12.9401C35.6846 13.3112 35.915 13.1393 35.9658 13.5885C36.5986 13.5416 37.1768 14.6119 36.4229 14.8151C36.5361 14.7838 36.7588 14.983 37.0166 14.8307C37.4541 15.1783 38.6064 15.2213 38.6377 16.0807C37.8447 16.4596 38.4424 17.4987 37.7549 17.8698C36.9658 17.7526 37.4854 18.8424 37.1533 18.7174C37.2861 19.5026 36.3564 18.6158 36.7158 19.0494C37.376 19.4557 36.4268 19.3737 36.7236 19.6705C36.3916 19.6002 36.9307 20.2877 37.0205 20.5416C37.4971 21.3151 36.6104 20.3698 36.3486 20.1119C36.0986 19.6119 35.5088 18.6549 35.3447 17.8698C35.251 16.7291 34.3682 15.9635 34.165 14.8502C33.9619 14.2291 34.7236 13.233 34.3135 12.8854C33.958 12.608 34.1025 11.6588 33.8916 11.1588C34.4189 8.87366 36.0947 6.94788 38.1064 5.80725C37.8994 5.95959 39.29 5.41272 39.1299 5.54553C39.0869 5.64319 39.9424 5.17444 40.458 5.10413C40.4033 5.11194 39.1182 5.57288 39.4736 5.51038C38.9229 5.77991 39.4189 5.62756 39.6924 5.49084C39.1455 5.89319 38.7236 5.77991 38.1025 6.13538C37.4775 6.29944 37.6064 6.94788 37.1611 7.27209C37.4229 7.31897 38.0791 6.59631 38.4619 6.34241C39.3408 5.91663 38.0166 7.11584 38.8525 6.60022C38.5713 6.86194 38.6299 7.27991 38.458 7.39709C38.3721 7.37366 38.7979 7.60022 38.1064 7.76819ZM39.4736 5.97131C39.3838 6.09241 39.2588 6.35413 39.1846 6.19397C39.083 6.24475 39.0439 6.4635 38.8525 6.28772C38.9658 6.20569 39.083 6.01038 38.8604 6.13147C38.9619 6.02209 39.8682 5.7135 39.8174 5.59631C39.9775 5.49475 39.9619 5.44397 39.7783 5.50647C39.6846 5.47522 40.001 5.20959 40.4229 5.17444C40.4814 5.17444 40.5049 5.2135 40.3994 5.20178C39.7627 5.39709 40.0361 5.34241 40.4658 5.20178C40.3018 5.29553 40.1885 5.32288 40.1611 5.36584C40.5908 5.20959 40.1377 5.47913 40.2354 5.45959C40.1143 5.52209 40.2549 5.54163 40.0205 5.63147C40.0635 5.59631 39.6377 5.88538 39.8916 5.79944C39.6455 6.03381 39.5361 6.03772 39.4736 5.97131V5.97131ZM39.8486 6.52991C39.8564 6.15491 40.3955 5.91663 40.3291 5.89709C40.9932 5.58459 40.0986 5.90881 40.6221 5.62756C40.8174 5.60803 41.2314 4.98303 41.8057 4.94397C42.4385 4.75256 42.1455 4.95569 42.6143 4.776L42.5205 4.85413C42.4385 4.86584 42.54 5.01038 42.2432 5.22913C42.2119 5.56897 41.6768 5.41272 41.9424 5.776C41.7705 5.52991 41.5127 5.76819 41.8369 5.79163C41.4893 6.05725 40.6807 6.10413 40.2939 6.54553C40.0439 6.90491 39.8135 6.79163 39.8486 6.52991V6.52991ZM42.626 7.77991C42.3604 8.42053 42.1025 7.68616 42.5713 7.56897C42.6885 7.63147 42.7354 7.651 42.626 7.77991ZM41.626 6.49866C41.5479 6.20959 41.6104 6.36194 42.0752 6.22522C42.3955 6.45569 41.79 6.60803 41.626 6.49866ZM48.8994 17.9635C48.5322 17.3307 49.3447 16.7448 49.6182 16.2135C49.583 16.8346 49.5049 17.4479 48.8994 17.9635ZM50.2822 10.733C49.8838 10.7643 49.5244 10.858 49.165 10.6315C48.3369 9.72522 49.3174 11.6549 49.5908 10.8658C50.5752 11.2408 49.5752 12.858 48.9541 12.6901C48.6064 11.9401 48.1768 11.1158 47.4189 10.7487C48.001 11.3932 48.29 12.1862 48.915 12.7682C48.958 13.5807 49.7822 12.4713 49.7314 13.1002C49.8096 14.1823 48.5088 14.8307 48.7354 15.9166C49.2197 16.9049 47.8018 17.0846 47.9619 17.9713C47.3916 18.608 46.7822 19.4674 45.7588 19.3307C45.7588 18.7916 45.4854 18.3346 45.4229 17.7799C44.8682 17.0768 46.0088 16.3229 45.3018 15.5885C44.4854 15.4049 45.4697 14.2799 44.6299 14.3854C44.126 13.8815 43.3877 14.3698 42.665 14.3737C41.7588 14.4596 40.8252 13.2604 41.2275 12.4127C40.9072 11.5299 42.2432 11.2721 42.2783 10.4948C42.9189 9.95959 43.8291 10.026 44.6963 9.901C44.6338 10.5221 45.29 10.526 45.7861 10.733C46.0635 10.0612 46.9268 10.8424 47.5166 10.4166C47.7197 9.42444 46.9424 10.0221 46.4971 9.70569C45.958 8.91663 47.6494 9.29944 47.4736 8.88538C46.8174 8.88147 47.1885 8.07678 46.7236 8.526C47.1416 8.60022 46.6494 8.92834 46.6611 8.55334C46.0283 8.36975 46.6377 9.27209 46.3174 9.35803C45.8291 9.15491 46.0596 9.5885 46.1104 9.65491C45.8994 10.1119 45.6416 8.98303 45.0439 9.01428C44.4502 8.47131 44.8096 9.26038 45.3252 9.38928C45.2158 9.42053 45.3877 9.86975 45.251 9.67834C44.8252 9.09241 44.0166 8.70178 43.5361 9.42053C43.4854 10.0924 42.1182 10.2838 42.3369 9.49866C42.0166 8.68616 43.3291 9.47522 43.208 8.82678C42.3643 8.26819 43.4385 8.44788 43.7236 7.92444C44.3721 7.94397 43.751 7.39319 44.0557 7.23303C44.0244 7.83069 44.5518 7.71741 44.9697 7.60413C44.8682 7.26038 45.2197 7.27209 45.0049 6.98694C45.9736 6.60022 44.2666 7.16663 44.6104 6.31897C44.1924 6.02991 44.4346 6.95569 44.6104 7.05334C44.6221 7.3385 44.3799 7.69006 44.0479 7.09241C43.5635 7.40881 43.6143 6.77209 43.583 6.8385C43.5283 6.59241 43.9502 6.58069 43.9541 6.151C43.9189 5.87756 43.9268 5.73303 44.1221 5.71741C44.1377 5.75647 44.9229 5.76819 45.2002 6.09241C44.4424 5.94006 45.0869 6.21741 45.4268 6.37366C45.0635 6.0885 45.5713 6.37366 45.2744 6.04944C45.3916 6.07288 44.9502 5.60413 45.4033 6.01428C45.1572 5.72131 45.8838 5.80725 45.4541 5.5885C46.083 5.76428 45.7119 5.60413 45.3408 5.44397C44.3174 4.83459 47.1494 6.26819 45.9932 5.63147C46.7314 5.79163 44.415 5.06116 45.4697 5.38147C45.0674 5.20569 45.458 5.30334 45.8213 5.41663C45.1689 5.2135 44.1924 4.83459 44.2314 4.81897C44.458 4.83459 44.6807 4.88538 44.8955 4.94788C45.5635 5.14709 44.7041 4.901 44.8877 4.90491C47.1846 5.49475 49.1963 7.03381 50.4189 9.04553C50.7041 9.34631 51.4814 11.3346 51.0752 10.4518C51.2588 11.1549 51.2861 11.9127 51.3838 12.6315C51.1807 12.4049 50.9541 11.569 50.7588 11.1041C50.6768 11.2838 50.583 10.8502 50.2822 10.733Z"/>
</mask>
<path d="M36.2471 8.25256C36.0635 8.29553 36.1807 8.28772 36.0283 8.30725C35.376 8.44788 35.8604 8.57288 36.2471 8.25256ZM47.7197 8.51428C47.7666 8.48303 47.9307 8.32288 47.4189 8.16663C47.4502 8.32678 47.3135 8.31116 47.3135 8.401C47.6924 8.74475 47.8486 9.34241 48.333 9.46741C48.4268 9.03772 47.9033 8.82678 47.7197 8.51428V8.51428ZM35.8994 8.12756C35.958 8.47522 36.2197 7.76038 36.2236 7.50647C36.1221 7.56506 36.0205 7.62366 35.915 7.67053C36.1611 7.79553 35.9463 7.92834 35.6807 8.12756C35.1416 8.79944 36.1846 7.60413 35.8994 8.12756V8.12756ZM42.583 3.776C37.0596 3.776 32.583 8.25256 32.583 13.776C32.583 19.2955 37.0596 23.776 42.583 23.776C48.1064 23.776 52.583 19.2955 52.583 13.776C52.583 8.25256 48.1064 3.776 42.583 3.776ZM42.8486 7.12756L42.8955 7.14319C42.708 7.38538 43.8721 8.09241 43.0361 8.151C42.2549 8.37366 43.3643 7.94788 42.7588 8.02209C43.0791 7.57678 42.5049 7.56897 42.8486 7.12756V7.12756ZM38.1064 7.76819C37.8252 7.53381 36.9424 8.0885 37.251 7.95569C38.0166 7.65491 37.3018 7.98694 37.4814 8.34631C37.3174 8.68616 37.4268 8.01038 37.0205 8.41272C36.7275 8.47913 36.0088 9.14319 36.0986 8.94006C36.0752 9.25647 35.2432 9.63147 35.1299 10.1588C34.8564 10.8893 35.0635 10.1315 35.0127 9.84631C34.6221 9.35022 33.9111 10.6862 34.1221 11.2135C34.4775 10.5885 34.4502 11.1471 34.1924 11.4244C34.4541 11.9049 33.9541 12.5299 34.4502 12.8854C34.6689 12.9362 35.1064 12.151 34.915 12.9674C35.0479 12.2604 35.2822 13.1354 35.6611 12.9401C35.6846 13.3112 35.915 13.1393 35.9658 13.5885C36.5986 13.5416 37.1768 14.6119 36.4229 14.8151C36.5361 14.7838 36.7588 14.983 37.0166 14.8307C37.4541 15.1783 38.6064 15.2213 38.6377 16.0807C37.8447 16.4596 38.4424 17.4987 37.7549 17.8698C36.9658 17.7526 37.4854 18.8424 37.1533 18.7174C37.2861 19.5026 36.3564 18.6158 36.7158 19.0494C37.376 19.4557 36.4268 19.3737 36.7236 19.6705C36.3916 19.6002 36.9307 20.2877 37.0205 20.5416C37.4971 21.3151 36.6104 20.3698 36.3486 20.1119C36.0986 19.6119 35.5088 18.6549 35.3447 17.8698C35.251 16.7291 34.3682 15.9635 34.165 14.8502C33.9619 14.2291 34.7236 13.233 34.3135 12.8854C33.958 12.608 34.1025 11.6588 33.8916 11.1588C34.4189 8.87366 36.0947 6.94788 38.1064 5.80725C37.8994 5.95959 39.29 5.41272 39.1299 5.54553C39.0869 5.64319 39.9424 5.17444 40.458 5.10413C40.4033 5.11194 39.1182 5.57288 39.4736 5.51038C38.9229 5.77991 39.4189 5.62756 39.6924 5.49084C39.1455 5.89319 38.7236 5.77991 38.1025 6.13538C37.4775 6.29944 37.6064 6.94788 37.1611 7.27209C37.4229 7.31897 38.0791 6.59631 38.4619 6.34241C39.3408 5.91663 38.0166 7.11584 38.8525 6.60022C38.5713 6.86194 38.6299 7.27991 38.458 7.39709C38.3721 7.37366 38.7979 7.60022 38.1064 7.76819ZM39.4736 5.97131C39.3838 6.09241 39.2588 6.35413 39.1846 6.19397C39.083 6.24475 39.0439 6.4635 38.8525 6.28772C38.9658 6.20569 39.083 6.01038 38.8604 6.13147C38.9619 6.02209 39.8682 5.7135 39.8174 5.59631C39.9775 5.49475 39.9619 5.44397 39.7783 5.50647C39.6846 5.47522 40.001 5.20959 40.4229 5.17444C40.4814 5.17444 40.5049 5.2135 40.3994 5.20178C39.7627 5.39709 40.0361 5.34241 40.4658 5.20178C40.3018 5.29553 40.1885 5.32288 40.1611 5.36584C40.5908 5.20959 40.1377 5.47913 40.2354 5.45959C40.1143 5.52209 40.2549 5.54163 40.0205 5.63147C40.0635 5.59631 39.6377 5.88538 39.8916 5.79944C39.6455 6.03381 39.5361 6.03772 39.4736 5.97131V5.97131ZM39.8486 6.52991C39.8564 6.15491 40.3955 5.91663 40.3291 5.89709C40.9932 5.58459 40.0986 5.90881 40.6221 5.62756C40.8174 5.60803 41.2314 4.98303 41.8057 4.94397C42.4385 4.75256 42.1455 4.95569 42.6143 4.776L42.5205 4.85413C42.4385 4.86584 42.54 5.01038 42.2432 5.22913C42.2119 5.56897 41.6768 5.41272 41.9424 5.776C41.7705 5.52991 41.5127 5.76819 41.8369 5.79163C41.4893 6.05725 40.6807 6.10413 40.2939 6.54553C40.0439 6.90491 39.8135 6.79163 39.8486 6.52991V6.52991ZM42.626 7.77991C42.3604 8.42053 42.1025 7.68616 42.5713 7.56897C42.6885 7.63147 42.7354 7.651 42.626 7.77991ZM41.626 6.49866C41.5479 6.20959 41.6104 6.36194 42.0752 6.22522C42.3955 6.45569 41.79 6.60803 41.626 6.49866ZM48.8994 17.9635C48.5322 17.3307 49.3447 16.7448 49.6182 16.2135C49.583 16.8346 49.5049 17.4479 48.8994 17.9635ZM50.2822 10.733C49.8838 10.7643 49.5244 10.858 49.165 10.6315C48.3369 9.72522 49.3174 11.6549 49.5908 10.8658C50.5752 11.2408 49.5752 12.858 48.9541 12.6901C48.6064 11.9401 48.1768 11.1158 47.4189 10.7487C48.001 11.3932 48.29 12.1862 48.915 12.7682C48.958 13.5807 49.7822 12.4713 49.7314 13.1002C49.8096 14.1823 48.5088 14.8307 48.7354 15.9166C49.2197 16.9049 47.8018 17.0846 47.9619 17.9713C47.3916 18.608 46.7822 19.4674 45.7588 19.3307C45.7588 18.7916 45.4854 18.3346 45.4229 17.7799C44.8682 17.0768 46.0088 16.3229 45.3018 15.5885C44.4854 15.4049 45.4697 14.2799 44.6299 14.3854C44.126 13.8815 43.3877 14.3698 42.665 14.3737C41.7588 14.4596 40.8252 13.2604 41.2275 12.4127C40.9072 11.5299 42.2432 11.2721 42.2783 10.4948C42.9189 9.95959 43.8291 10.026 44.6963 9.901C44.6338 10.5221 45.29 10.526 45.7861 10.733C46.0635 10.0612 46.9268 10.8424 47.5166 10.4166C47.7197 9.42444 46.9424 10.0221 46.4971 9.70569C45.958 8.91663 47.6494 9.29944 47.4736 8.88538C46.8174 8.88147 47.1885 8.07678 46.7236 8.526C47.1416 8.60022 46.6494 8.92834 46.6611 8.55334C46.0283 8.36975 46.6377 9.27209 46.3174 9.35803C45.8291 9.15491 46.0596 9.5885 46.1104 9.65491C45.8994 10.1119 45.6416 8.98303 45.0439 9.01428C44.4502 8.47131 44.8096 9.26038 45.3252 9.38928C45.2158 9.42053 45.3877 9.86975 45.251 9.67834C44.8252 9.09241 44.0166 8.70178 43.5361 9.42053C43.4854 10.0924 42.1182 10.2838 42.3369 9.49866C42.0166 8.68616 43.3291 9.47522 43.208 8.82678C42.3643 8.26819 43.4385 8.44788 43.7236 7.92444C44.3721 7.94397 43.751 7.39319 44.0557 7.23303C44.0244 7.83069 44.5518 7.71741 44.9697 7.60413C44.8682 7.26038 45.2197 7.27209 45.0049 6.98694C45.9736 6.60022 44.2666 7.16663 44.6104 6.31897C44.1924 6.02991 44.4346 6.95569 44.6104 7.05334C44.6221 7.3385 44.3799 7.69006 44.0479 7.09241C43.5635 7.40881 43.6143 6.77209 43.583 6.8385C43.5283 6.59241 43.9502 6.58069 43.9541 6.151C43.9189 5.87756 43.9268 5.73303 44.1221 5.71741C44.1377 5.75647 44.9229 5.76819 45.2002 6.09241C44.4424 5.94006 45.0869 6.21741 45.4268 6.37366C45.0635 6.0885 45.5713 6.37366 45.2744 6.04944C45.3916 6.07288 44.9502 5.60413 45.4033 6.01428C45.1572 5.72131 45.8838 5.80725 45.4541 5.5885C46.083 5.76428 45.7119 5.60413 45.3408 5.44397C44.3174 4.83459 47.1494 6.26819 45.9932 5.63147C46.7314 5.79163 44.415 5.06116 45.4697 5.38147C45.0674 5.20569 45.458 5.30334 45.8213 5.41663C45.1689 5.2135 44.1924 4.83459 44.2314 4.81897C44.458 4.83459 44.6807 4.88538 44.8955 4.94788C45.5635 5.14709 44.7041 4.901 44.8877 4.90491C47.1846 5.49475 49.1963 7.03381 50.4189 9.04553C50.7041 9.34631 51.4814 11.3346 51.0752 10.4518C51.2588 11.1549 51.2861 11.9127 51.3838 12.6315C51.1807 12.4049 50.9541 11.569 50.7588 11.1041C50.6768 11.2838 50.583 10.8502 50.2822 10.733Z" stroke="white" stroke-width="2" mask="url(#path-1-inside-1_590:75)"/>
<path d="M57.5238 7.45343L57.5675 7.4655L57.1763 10.8743L57.1249 10.8771L53.0538 11.1012L52.5912 11.1267L52.5814 11.5898C52.5094 14.9825 53.062 18.9804 53.4508 21.3825C52.1666 21.5756 49.2459 21.9643 46.0757 22.052V8.41021L47.6533 9.27043L48.0009 9.45996L48.2651 9.16507L50.8827 6.24312L51.1433 6.26775C51.98 6.3468 52.8149 6.43543 53.6476 6.5336C54.4642 6.63158 56.276 7.10803 57.5238 7.45343ZM41.911 4.276H48.8237L47.6282 5.32466H47.2135H43.1061L41.911 4.276Z" fill="white" stroke="white"/>
</g>
<path d="M0 0.639999H3.616C3.98933 0.639999 4.29867 0.730666 4.544 0.912001C4.8 1.08267 4.97067 1.31733 5.056 1.616L8.992 15.456C9.088 15.7973 9.17333 16.1707 9.248 16.576C9.33333 16.9707 9.41333 17.392 9.488 17.84C9.57333 17.392 9.664 16.9707 9.76 16.576C9.86667 16.1707 9.97867 15.7973 10.096 15.456L14.64 1.616C14.7253 1.37067 14.8907 1.14667 15.136 0.944C15.392 0.741333 15.7013 0.639999 16.064 0.639999H17.328C17.7013 0.639999 18.0107 0.730666 18.256 0.912001C18.5013 1.08267 18.672 1.31733 18.768 1.616L23.28 15.456C23.5147 16.1387 23.7173 16.896 23.888 17.728C23.9627 17.312 24.0373 16.912 24.112 16.528C24.1973 16.144 24.2827 15.7867 24.368 15.456L28.304 1.616C28.3787 1.34933 28.544 1.12 28.8 0.927999C29.056 0.735999 29.3653 0.639999 29.728 0.639999H33.104L25.92 23.776H22.032L16.976 7.968C16.912 7.76533 16.8427 7.54667 16.768 7.312C16.704 7.07733 16.64 6.82667 16.576 6.56C16.512 6.82667 16.4427 7.07733 16.368 7.312C16.304 7.54667 16.24 7.76533 16.176 7.968L11.072 23.776H7.184L0 0.639999Z" fill="white"/>
<path d="M65.4218 0V23.776H61.4697V0H65.4218Z" fill="white"/>
<path d="M79.8532 23.776C79.3412 23.776 79.0052 23.536 78.8452 23.056L78.5252 21.472C78.1839 21.856 77.8266 22.2027 77.4532 22.512C77.0799 22.8213 76.6746 23.088 76.2373 23.312C75.8106 23.536 75.3466 23.7067 74.8452 23.824C74.3546 23.952 73.8212 24.016 73.2452 24.016C72.3492 24.016 71.5279 23.8293 70.7812 23.456C70.0346 23.0827 69.3892 22.544 68.8452 21.84C68.3119 21.1253 67.8959 20.2453 67.5973 19.2C67.3093 18.1547 67.1652 16.96 67.1652 15.616C67.1652 14.4 67.3306 13.2693 67.6612 12.224C67.9919 11.1787 68.4666 10.272 69.0853 9.504C69.7039 8.736 70.4452 8.13867 71.3092 7.712C72.1732 7.27467 73.1439 7.056 74.2213 7.056C75.1386 7.056 75.9226 7.20533 76.5732 7.504C77.2239 7.792 77.8052 8.18133 78.3172 8.672V0H82.2692V23.776H79.8532ZM74.5892 20.88C75.4106 20.88 76.1092 20.7093 76.6852 20.368C77.2612 20.0267 77.8052 19.5413 78.3172 18.912V11.552C77.8692 11.008 77.3786 10.624 76.8452 10.4C76.3226 10.176 75.7572 10.064 75.1492 10.064C74.5519 10.064 74.0079 10.176 73.5173 10.4C73.0372 10.624 72.6266 10.9653 72.2852 11.424C71.9546 11.872 71.6986 12.448 71.5173 13.152C71.3359 13.8453 71.2452 14.6667 71.2452 15.616C71.2452 16.576 71.3199 17.392 71.4692 18.064C71.6292 18.7253 71.8533 19.2693 72.1413 19.696C72.4293 20.112 72.7813 20.416 73.1973 20.608C73.6133 20.7893 74.0772 20.88 74.5892 20.88Z" fill="white"/>
<path d="M105.667 18.32C105.901 18.32 106.104 18.4107 106.275 18.592L107.971 20.432C107.032 21.5947 105.875 22.4853 104.499 23.104C103.133 23.7227 101.491 24.032 99.5708 24.032C97.8534 24.032 96.3067 23.7387 94.9307 23.152C93.5654 22.5653 92.3974 21.7493 91.4268 20.704C90.4561 19.6587 89.7094 18.4107 89.1868 16.96C88.6748 15.5093 88.4188 13.9253 88.4188 12.208C88.4188 10.4693 88.7068 8.88 89.2828 7.44C89.8588 5.98933 90.6694 4.74133 91.7148 3.696C92.7601 2.65067 94.0081 1.84 95.4588 1.264C96.9201 0.677334 98.5307 0.384001 100.291 0.384001C102.008 0.384001 103.507 0.661334 104.787 1.216C106.077 1.76 107.181 2.48533 108.099 3.392L106.659 5.392C106.573 5.52 106.461 5.632 106.323 5.728C106.195 5.824 106.013 5.872 105.779 5.872C105.533 5.872 105.283 5.776 105.027 5.584C104.771 5.392 104.445 5.184 104.051 4.96C103.656 4.736 103.155 4.528 102.547 4.336C101.949 4.144 101.187 4.048 100.259 4.048C99.1708 4.048 98.1681 4.24 97.2508 4.624C96.3441 4.99733 95.5601 5.536 94.8988 6.24C94.2481 6.944 93.7361 7.80267 93.3628 8.816C93.0001 9.81867 92.8187 10.9493 92.8187 12.208C92.8187 13.5093 93.0001 14.6667 93.3628 15.68C93.7361 16.6933 94.2374 17.5467 94.8668 18.24C95.4961 18.9333 96.2374 19.4667 97.0908 19.84C97.9441 20.2027 98.8614 20.384 99.8428 20.384C100.429 20.384 100.957 20.352 101.427 20.288C101.907 20.224 102.344 20.1227 102.739 19.984C103.144 19.8453 103.523 19.6693 103.875 19.456C104.237 19.232 104.595 18.96 104.947 18.64C105.053 18.544 105.165 18.4693 105.283 18.416C105.4 18.352 105.528 18.32 105.667 18.32Z" fill="white"/>
<path d="M113.616 7.36V23.776H109.664V7.36H113.616ZM114.208 2.576C114.208 2.91733 114.138 3.23733 114 3.536C113.861 3.83467 113.674 4.096 113.44 4.32C113.216 4.544 112.949 4.72533 112.64 4.864C112.33 4.992 112 5.056 111.648 5.056C111.306 5.056 110.981 4.992 110.672 4.864C110.373 4.72533 110.112 4.544 109.888 4.32C109.664 4.096 109.482 3.83467 109.344 3.536C109.216 3.23733 109.152 2.91733 109.152 2.576C109.152 2.224 109.216 1.89333 109.344 1.584C109.482 1.27467 109.664 1.008 109.888 0.784C110.112 0.56 110.373 0.384 110.672 0.256001C110.981 0.117334 111.306 0.0480003 111.648 0.0480003C112 0.0480003 112.33 0.117334 112.64 0.256001C112.949 0.384 113.216 0.56 113.44 0.784C113.674 1.008 113.861 1.27467 114 1.584C114.138 1.89333 114.208 2.224 114.208 2.576Z" fill="white"/>
<path d="M121.887 24.032C120.468 24.032 119.375 23.632 118.607 22.832C117.839 22.0213 117.455 20.9067 117.455 19.488V10.32H115.791C115.578 10.32 115.391 10.2507 115.231 10.112C115.082 9.97333 115.007 9.76533 115.007 9.488V7.92L117.647 7.488L118.479 3.008C118.522 2.79467 118.618 2.62933 118.767 2.512C118.927 2.39467 119.124 2.336 119.359 2.336H121.407V7.504H125.727V10.32H121.407V19.216C121.407 19.728 121.535 20.128 121.791 20.416C122.047 20.704 122.388 20.848 122.815 20.848C123.06 20.848 123.263 20.8213 123.423 20.768C123.594 20.704 123.738 20.64 123.855 20.576C123.983 20.512 124.095 20.4533 124.191 20.4C124.287 20.336 124.383 20.304 124.479 20.304C124.596 20.304 124.692 20.336 124.767 20.4C124.842 20.4533 124.922 20.5387 125.007 20.656L126.191 22.576C125.615 23.056 124.954 23.4187 124.207 23.664C123.46 23.9093 122.687 24.032 121.887 24.032Z" fill="white"/>
<path d="M131.478 7.36V23.776H127.526V7.36H131.478ZM132.07 2.576C132.07 2.91733 132.001 3.23733 131.862 3.536C131.723 3.83467 131.537 4.096 131.302 4.32C131.078 4.544 130.811 4.72533 130.502 4.864C130.193 4.992 129.862 5.056 129.51 5.056C129.169 5.056 128.843 4.992 128.534 4.864C128.235 4.72533 127.974 4.544 127.75 4.32C127.526 4.096 127.345 3.83467 127.206 3.536C127.078 3.23733 127.014 2.91733 127.014 2.576C127.014 2.224 127.078 1.89333 127.206 1.584C127.345 1.27467 127.526 1.008 127.75 0.784C127.974 0.56 128.235 0.384 128.534 0.256001C128.843 0.117334 129.169 0.0480003 129.51 0.0480003C129.862 0.0480003 130.193 0.117334 130.502 0.256001C130.811 0.384 131.078 0.56 131.302 0.784C131.537 1.008 131.723 1.27467 131.862 1.584C132.001 1.89333 132.07 2.224 132.07 2.576Z" fill="white"/>
<path d="M146.23 8.992C146.23 9.26933 146.176 9.54133 146.07 9.808C145.974 10.064 145.856 10.2827 145.718 10.464L137.91 20.736H146.006V23.776H133.318V22.128C133.318 21.9467 133.36 21.7333 133.446 21.488C133.531 21.232 133.664 20.992 133.846 20.768L141.718 10.384H133.782V7.36H146.23V8.992Z" fill="white"/>
<path d="M154.573 7.104C155.607 7.104 156.557 7.26933 157.421 7.6C158.295 7.93067 159.047 8.416 159.677 9.056C160.306 9.68533 160.797 10.464 161.149 11.392C161.501 12.3093 161.677 13.36 161.677 14.544C161.677 14.8427 161.661 15.0933 161.629 15.296C161.607 15.488 161.559 15.6427 161.485 15.76C161.421 15.8667 161.33 15.9467 161.213 16C161.095 16.0427 160.946 16.064 160.765 16.064H150.621C150.738 17.7493 151.191 18.9867 151.981 19.776C152.77 20.5653 153.815 20.96 155.117 20.96C155.757 20.96 156.306 20.8853 156.765 20.736C157.234 20.5867 157.639 20.4213 157.981 20.24C158.333 20.0587 158.637 19.8933 158.893 19.744C159.159 19.5947 159.415 19.52 159.661 19.52C159.821 19.52 159.959 19.552 160.077 19.616C160.194 19.68 160.295 19.7707 160.381 19.888L161.533 21.328C161.095 21.84 160.605 22.272 160.061 22.624C159.517 22.9653 158.946 23.2427 158.349 23.456C157.762 23.6587 157.159 23.8027 156.541 23.888C155.933 23.9733 155.341 24.016 154.765 24.016C153.623 24.016 152.562 23.8293 151.581 23.456C150.599 23.072 149.746 22.512 149.021 21.776C148.295 21.0293 147.725 20.112 147.309 19.024C146.893 17.9253 146.685 16.656 146.685 15.216C146.685 14.096 146.866 13.0453 147.229 12.064C147.591 11.072 148.109 10.2133 148.781 9.488C149.463 8.752 150.29 8.17067 151.261 7.744C152.242 7.31733 153.346 7.104 154.573 7.104ZM154.653 9.936C153.501 9.936 152.599 10.2613 151.949 10.912C151.298 11.5627 150.882 12.4853 150.701 13.68H158.125C158.125 13.168 158.055 12.688 157.917 12.24C157.778 11.7813 157.565 11.3813 157.277 11.04C156.989 10.6987 156.626 10.432 156.189 10.24C155.751 10.0373 155.239 9.936 154.653 9.936Z" fill="white"/>
<path d="M163.283 23.776V7.36H165.699C166.211 7.36 166.546 7.6 166.706 8.08L166.979 9.376C167.309 9.03467 167.656 8.72533 168.018 8.448C168.392 8.17067 168.781 7.93067 169.186 7.728C169.602 7.52533 170.045 7.37067 170.514 7.264C170.984 7.15733 171.496 7.104 172.05 7.104C172.946 7.104 173.741 7.25867 174.434 7.568C175.128 7.86667 175.704 8.29333 176.162 8.848C176.632 9.392 176.984 10.048 177.218 10.816C177.464 11.5733 177.587 12.4107 177.587 13.328V23.776H173.634V13.328C173.634 12.3253 173.4 11.552 172.93 11.008C172.472 10.4533 171.778 10.176 170.85 10.176C170.168 10.176 169.528 10.3307 168.93 10.64C168.333 10.9493 167.768 11.3707 167.234 11.904V23.776H163.283Z" fill="white"/>
<defs>
<clipPath id="clip0_590:75">
<rect width="27" height="20" fill="white" transform="translate(32.583 3.776)"/>
</clipPath>
</defs>
</svg>
