<?xml version="1.0" encoding="UTF-8" standalone="no"?>
<svg
   xmlns:dc="http://purl.org/dc/elements/1.1/"
   xmlns:cc="http://creativecommons.org/ns#"
   xmlns:rdf="http://www.w3.org/1999/02/22-rdf-syntax-ns#"
   xmlns:svg="http://www.w3.org/2000/svg"
   xmlns="http://www.w3.org/2000/svg"
   xmlns:sodipodi="http://sodipodi.sourceforge.net/DTD/sodipodi-0.dtd"
   xmlns:inkscape="http://www.inkscape.org/namespaces/inkscape"
   inkscape:version="1.0 (4035a4fb49, 2020-05-01)"
   sodipodi:docname="iconmonstr-building-15.svg"
   id="svg4"
   version="1.1"
   clip-rule="evenodd"
   fill-rule="evenodd"
   height="24"
   width="24">
  <metadata
     id="metadata10">
    <rdf:RDF>
      <cc:Work
         rdf:about="">
        <dc:format>image/svg+xml</dc:format>
        <dc:type
           rdf:resource="http://purl.org/dc/dcmitype/StillImage" />
      </cc:Work>
    </rdf:RDF>
  </metadata>
  <defs
     id="defs8" />
  <sodipodi:namedview
     inkscape:current-layer="svg4"
     inkscape:window-maximized="1"
     inkscape:window-y="-8"
     inkscape:window-x="-8"
     inkscape:cy="12"
     inkscape:cx="12"
     inkscape:zoom="17.998769"
     showgrid="false"
     id="namedview6"
     inkscape:window-height="705"
     inkscape:window-width="1366"
     inkscape:pageshadow="2"
     inkscape:pageopacity="0"
     guidetolerance="10"
     gridtolerance="10"
     objecttolerance="10"
     borderopacity="1"
     bordercolor="#666666"
     pagecolor="#ffffff" />
  <path
     style="fill:#a52a2a;fill-opacity:1"
     id="path2"
     d="M1 22h2v-22h18v22h2v2h-22v-2zm7-3v4h3v-4h-3zm5 0v4h3v-4h-3zm-6-5h-2v2h2v-2zm8 0h-2v2h2v-2zm-4 0h-2v2h2v-2zm8 0h-2v2h2v-2zm-12-4h-2v2h2v-2zm8 0h-2v2h2v-2zm-4 0h-2v2h2v-2zm8 0h-2v2h2v-2zm-12-4h-2v2h2v-2zm8 0h-2v2h2v-2zm-4 0h-2v2h2v-2zm8 0h-2v2h2v-2zm-12-4h-2v2h2v-2zm8 0h-2v2h2v-2zm-4 0h-2v2h2v-2zm8 0h-2v2h2v-2z" />
</svg>
